<svg width="100%" height="100%" viewBox="0 0 102 41" fill="none" xmlns="http://www.w3.org/2000/svg">
<path d="M40.0326 14.55C37.2618 11.786 31.1713 12.0833 29.352 15.7964C28.1391 18.2683 29.2213 20.9541 27.3758 23.7337C25.0076 27.306 18.7551 28.0674 15.634 25.0687C12.2934 21.8563 14.8237 18.0754 11.4778 14.6126C6.06699 9.02204 -3.155 15.9841 1.07959 22.8993C4.0438 27.7493 9.74219 23.9006 13.0253 28.7141C14.6303 31.0661 13.8565 33.3659 14.7557 35.8535C16.5907 40.959 24.1973 41.4962 26.8374 36.7505C28.4423 33.8613 26.7955 30.508 29.8068 27.718C32.4051 25.3086 35.6045 26.4664 38.2603 25.1991C42.2178 23.3113 43.1065 17.6112 40.0326 14.5448V14.55Z" fill="currentColor"/>
<path d="M20.9769 11.2019C24.0779 11.2019 26.5917 8.69429 26.5917 5.60097C26.5917 2.50764 24.0779 0 20.9769 0C17.876 0 15.3622 2.50764 15.3622 5.60097C15.3622 8.69429 17.876 11.2019 20.9769 11.2019Z" fill="currentColor"/>
<path d="M54.5818 12.7933C54.1901 12.7933 53.8584 12.6856 53.5866 12.4703C53.3229 12.2469 53.123 11.9159 52.9872 11.4772L50.9821 4.963C50.9299 4.79321 51.0568 4.6213 51.2345 4.6213H51.9282C52.0444 4.6213 52.147 4.6973 52.1808 4.80851L54.1142 11.1661C54.1621 11.3097 54.2221 11.4173 54.294 11.4891C54.366 11.5609 54.4619 11.5968 54.5818 11.5968C54.7017 11.5968 54.7976 11.5609 54.8695 11.4891C54.9495 11.4173 55.0094 11.3097 55.0494 11.1661L56.9592 4.80935C56.9927 4.69773 57.0955 4.6213 57.2121 4.6213H57.9171C58.0948 4.6213 58.2217 4.79321 58.1695 4.963L56.1644 11.4772C56.0286 11.9159 55.8247 12.2469 55.553 12.4703C55.2892 12.6856 54.9655 12.7933 54.5818 12.7933Z" fill="currentColor"/>
<path d="M59.043 7.039C59.043 6.89318 59.1612 6.77497 59.307 6.77497H59.966C60.1118 6.77497 60.23 6.89318 60.23 7.039V12.3737C60.23 12.5196 60.1118 12.6378 59.966 12.6378H59.307C59.1612 12.6378 59.043 12.5196 59.043 12.3737V7.039ZM59.6305 5.61438C59.4946 5.61438 59.3667 5.58247 59.2468 5.51866C59.1269 5.44687 59.031 5.35115 58.9591 5.2315C58.8871 5.11186 58.8512 4.98024 58.8512 4.83666C58.8512 4.69309 58.8871 4.56147 58.9591 4.44182C59.031 4.32217 59.1269 4.22646 59.2468 4.15467C59.3667 4.08288 59.4946 4.04698 59.6305 4.04698C59.7744 4.04698 59.9023 4.08288 60.0142 4.15467C60.1341 4.22646 60.226 4.32217 60.2899 4.44182C60.3619 4.56147 60.3979 4.69309 60.3979 4.83666C60.3979 4.98024 60.3619 5.11186 60.2899 5.2315C60.226 5.35115 60.1341 5.44687 60.0142 5.51866C59.9023 5.58247 59.7744 5.61438 59.6305 5.61438Z" fill="currentColor"/>
<path d="M62.7511 12.3737C62.7511 12.5196 62.6329 12.6378 62.4871 12.6378H61.8282C61.6823 12.6378 61.5641 12.5196 61.5641 12.3737V9.14402C61.5641 8.66542 61.6521 8.23868 61.8279 7.86378C62.0118 7.48888 62.2755 7.19374 62.6192 6.97838C62.9709 6.76301 63.4026 6.65533 63.9141 6.65533C64.106 6.65533 64.2898 6.67527 64.4657 6.71515C64.5893 6.73661 64.7057 6.76708 64.8149 6.80657C64.9109 6.8413 64.9692 6.93582 64.9692 7.03793V7.57298C64.9692 7.77906 64.737 7.91278 64.5376 7.86078C64.5257 7.85767 64.5137 7.85468 64.5016 7.85181C64.3418 7.81193 64.1819 7.79199 64.022 7.79199C63.6304 7.79199 63.3186 7.91961 63.0868 8.17486C62.863 8.42214 62.7511 8.76114 62.7511 9.19188V12.3737Z" fill="currentColor"/>
<path d="M69.1143 12.7933C68.6347 12.7933 68.2271 12.6976 67.8914 12.5061C67.5556 12.3147 67.2999 12.0515 67.124 11.7165C66.9562 11.3735 66.8722 10.9786 66.8722 10.5319V5.51946C66.8722 5.37364 66.9904 5.25543 67.1363 5.25543H67.7952C67.941 5.25543 68.0592 5.37364 68.0592 5.51946V10.4961C68.0592 10.8789 68.1631 11.178 68.371 11.3934C68.5868 11.6088 68.8705 11.7165 69.2222 11.7165C69.4141 11.7165 69.6059 11.6846 69.7977 11.6207C69.817 11.6146 69.836 11.6082 69.8548 11.6017C70.0581 11.531 70.3133 11.67 70.3133 11.8852V12.3126C70.3133 12.4033 70.2674 12.4888 70.1868 12.5305C70.0625 12.5949 69.9208 12.6506 69.7618 12.6976C69.5459 12.7614 69.3301 12.7933 69.1143 12.7933ZM70.3133 7.53992C70.3133 7.68574 70.1951 7.80395 70.0493 7.80395H65.9733C65.8274 7.80395 65.7092 7.68574 65.7092 7.53992V7.039C65.7092 6.89318 65.8274 6.77497 65.9733 6.77497H70.0493C70.1951 6.77497 70.3133 6.89318 70.3133 7.039V7.53992Z" fill="currentColor"/>
<path d="M74.0445 11.6327C74.4121 11.6327 74.7199 11.541 74.9677 11.3575C75.2234 11.1661 75.4153 10.9148 75.5432 10.6037C75.6711 10.2926 75.735 9.95763 75.735 9.59868V7.039C75.735 6.89318 75.8532 6.77497 75.999 6.77497H76.658C76.8038 6.77497 76.922 6.89318 76.922 7.039V9.74226C76.922 10.3086 76.8101 10.8231 76.5863 11.2857C76.3625 11.7404 76.0347 12.1033 75.6031 12.3745C75.1795 12.6457 74.6599 12.7813 74.0445 12.7813C73.437 12.7813 72.9214 12.6457 72.4978 12.3745C72.0741 12.0954 71.7504 11.7284 71.5266 11.2738C71.3028 10.8111 71.1909 10.2966 71.1909 9.7303V7.039C71.1909 6.89318 71.3091 6.77497 71.4549 6.77497H72.1138C72.2597 6.77497 72.3779 6.89318 72.3779 7.039V9.61065C72.3779 9.96162 72.4418 10.2926 72.5697 10.6037C72.6976 10.9148 72.8854 11.1661 73.1332 11.3575C73.381 11.541 73.6848 11.6327 74.0445 11.6327Z" fill="currentColor"/>
<path d="M80.5585 12.7813C79.991 12.7813 79.4835 12.6418 79.0358 12.3626C78.5962 12.0834 78.2485 11.7125 77.9927 11.2498C77.737 10.7792 77.6091 10.2607 77.6091 9.6944C77.6091 9.13604 77.7449 8.62554 78.0167 8.1629C78.2965 7.69228 78.6722 7.32137 79.1437 7.05017C79.6153 6.77099 80.1469 6.6314 80.7384 6.6314C81.3299 6.6314 81.8614 6.767 82.333 7.0382C82.8046 7.30143 83.1763 7.66436 83.4481 8.12701C83.7278 8.58965 83.8677 9.11211 83.8677 9.6944V12.3737C83.8677 12.5196 83.7495 12.6378 83.6037 12.6378H83.0047C82.8589 12.6378 82.7407 12.5196 82.7407 12.3737V10.549C82.7407 10.4855 82.7703 10.4256 82.8209 10.387C82.955 10.2846 83.1439 10.3806 83.1211 10.5478C83.0755 10.8821 82.9727 11.1919 82.8126 11.4772C82.5968 11.876 82.2931 12.1951 81.9014 12.4344C81.5177 12.6657 81.0701 12.7813 80.5585 12.7813ZM80.7384 11.6566C81.1061 11.6566 81.4378 11.5689 81.7335 11.3934C82.0293 11.2179 82.2611 10.9826 82.4289 10.6875C82.5968 10.3844 82.6807 10.0573 82.6807 9.70637C82.6807 9.34742 82.5968 9.02038 82.4289 8.72525C82.2611 8.43012 82.0293 8.19481 81.7335 8.01932C81.4378 7.83586 81.1061 7.74413 80.7384 7.74413C80.3707 7.74413 80.039 7.83586 79.7432 8.01932C79.4555 8.19481 79.2237 8.43012 79.0478 8.72525C78.88 9.02038 78.796 9.34742 78.796 9.70637C78.796 10.0573 78.88 10.3844 79.0478 10.6875C79.2237 10.9826 79.4555 11.2179 79.7432 11.3934C80.039 11.5689 80.3707 11.6566 80.7384 11.6566Z" fill="currentColor"/>
<path d="M85.2083 4.34691C85.2083 4.20109 85.3265 4.08288 85.4724 4.08288H86.1313C86.2771 4.08288 86.3953 4.20109 86.3953 4.34691V12.3737C86.3953 12.5196 86.2771 12.6378 86.1313 12.6378H85.4724C85.3265 12.6378 85.2083 12.5196 85.2083 12.3737V4.34691Z" fill="currentColor"/>
<path d="M54.2101 24.3631C53.5307 24.3631 52.9272 24.2155 52.3997 23.9204C51.9477 23.6675 51.5984 23.321 51.3518 22.8808C51.282 22.7563 51.3386 22.6024 51.4669 22.5399L52.0216 22.2696C52.1561 22.204 52.3162 22.2649 52.3979 22.3903C52.5463 22.6183 52.7468 22.8013 52.9991 22.9393C53.3349 23.1227 53.7385 23.2144 54.2101 23.2144C54.5218 23.2144 54.8016 23.1706 55.0494 23.0828C55.2972 22.9871 55.493 22.8475 55.6369 22.6641C55.7888 22.4726 55.8647 22.2453 55.8647 21.9821C55.8647 21.6869 55.7848 21.4636 55.6249 21.312C55.465 21.1525 55.2492 21.0368 54.9775 20.965C54.7137 20.8853 54.4219 20.8175 54.1022 20.7616C53.7985 20.6978 53.4867 20.6221 53.167 20.5343C52.8553 20.4386 52.5635 20.307 52.2917 20.1395C52.02 19.972 51.8002 19.7526 51.6323 19.4814C51.4724 19.2022 51.3925 18.8513 51.3925 18.4285C51.3925 17.9818 51.5124 17.583 51.7522 17.232C52 16.881 52.3277 16.6058 52.7354 16.4064C53.151 16.199 53.6146 16.0953 54.1262 16.0953C54.7417 16.0953 55.3012 16.2389 55.8047 16.5261C56.2381 16.7663 56.5738 17.107 56.8118 17.5481C56.8778 17.6705 56.8237 17.82 56.7002 17.8839L56.1476 18.1693C56.0133 18.2387 55.85 18.1798 55.7675 18.0532C55.6242 17.8334 55.4368 17.6554 55.2053 17.5192C54.8935 17.3277 54.5178 17.232 54.0782 17.232C53.8065 17.232 53.5587 17.2839 53.3349 17.3876C53.119 17.4833 52.9432 17.6189 52.8073 17.7944C52.6714 17.9619 52.6035 18.1613 52.6035 18.3926C52.6035 18.6798 52.6874 18.9031 52.8553 19.0626C53.0231 19.2142 53.2429 19.3338 53.5147 19.4216C53.7945 19.5013 54.0982 19.5731 54.4259 19.6369C54.7297 19.7008 55.0374 19.7805 55.3491 19.8762C55.6609 19.964 55.9446 20.0916 56.2004 20.2591C56.4642 20.4266 56.676 20.65 56.8359 20.9292C57.0037 21.2004 57.0876 21.5473 57.0876 21.9701C57.0876 22.4407 56.9598 22.8555 56.704 23.2144C56.4482 23.5654 56.1005 23.8446 55.6609 24.052C55.2292 24.2594 54.7456 24.3631 54.2101 24.3631Z" fill="currentColor"/>
<path d="M58.2234 15.9406C58.2234 15.7948 58.3416 15.6766 58.4874 15.6766H59.1464C59.2922 15.6766 59.4104 15.7948 59.4104 15.9406V23.9674C59.4104 24.1132 59.2922 24.2315 59.1464 24.2315H58.4874C58.3416 24.2315 58.2234 24.1132 58.2234 23.9674V15.9406Z" fill="currentColor"/>
<path d="M60.9843 18.6327C60.9843 18.4869 61.1025 18.3687 61.2484 18.3687H61.9073C62.0531 18.3687 62.1713 18.4869 62.1713 18.6327V23.9674C62.1713 24.1132 62.0531 24.2315 61.9073 24.2315H61.2484C61.1025 24.2315 60.9843 24.1132 60.9843 23.9674V18.6327ZM61.5718 17.2081C61.4359 17.2081 61.308 17.1762 61.1881 17.1124C61.0682 17.0406 60.9723 16.9448 60.9004 16.8252C60.8285 16.7056 60.7925 16.5739 60.7925 16.4304C60.7925 16.2868 60.8285 16.1552 60.9004 16.0355C60.9723 15.9159 61.0682 15.8202 61.1881 15.7484C61.308 15.6766 61.4359 15.6407 61.5718 15.6407C61.7157 15.6407 61.8436 15.6766 61.9555 15.7484C62.0754 15.8202 62.1673 15.9159 62.2313 16.0355C62.3032 16.1552 62.3392 16.2868 62.3392 16.4304C62.3392 16.5739 62.3032 16.7056 62.2313 16.8252C62.1673 16.9448 62.0754 17.0406 61.9555 17.1124C61.8436 17.1762 61.7157 17.2081 61.5718 17.2081Z" fill="currentColor"/>
<path d="M70.7952 18.2012C71.3867 18.2012 71.8823 18.3328 72.282 18.596C72.6896 18.8592 72.9973 19.2142 73.2052 19.6609C73.421 20.1076 73.5289 20.6021 73.5289 21.1445V23.9674C73.5289 24.1132 73.4107 24.2315 73.2649 24.2315H72.6059C72.4601 24.2315 72.3419 24.1132 72.3419 23.9674V21.336C72.3419 20.977 72.282 20.646 72.1621 20.3429C72.0502 20.0398 71.8703 19.7965 71.6225 19.613C71.3827 19.4296 71.079 19.3378 70.7113 19.3378C70.3596 19.3378 70.0639 19.4296 69.8241 19.613C69.5843 19.7885 69.4044 20.0278 69.2845 20.3309C69.1646 20.626 69.1047 20.9531 69.1047 21.312V23.9674C69.1047 24.1132 68.9865 24.2315 68.8406 24.2315H68.1817C68.0359 24.2315 67.9177 24.1132 67.9177 23.9674V21.312C67.9177 20.9531 67.8577 20.626 67.7378 20.3309C67.6259 20.0278 67.4461 19.7885 67.1983 19.613C66.9585 19.4296 66.6548 19.3378 66.2871 19.3378C65.9194 19.3378 65.6156 19.4296 65.3759 19.613C65.1441 19.7965 64.9722 20.0398 64.8603 20.3429C64.7484 20.646 64.6924 20.977 64.6924 21.336V23.9674C64.6924 24.1132 64.5742 24.2315 64.4284 24.2315H63.7695C63.6237 24.2315 63.5055 24.1132 63.5055 23.9674V21.1565C63.5055 20.6061 63.6054 20.1076 63.8052 19.6609C64.013 19.2142 64.3168 18.8592 64.7164 18.596C65.1241 18.3328 65.6196 18.2012 66.2031 18.2012C66.6987 18.2012 67.1264 18.2969 67.4861 18.4883C67.8537 18.6798 68.1375 18.943 68.3373 19.278C68.5243 19.5794 68.6304 19.9227 68.6556 20.308C68.6603 20.3796 68.6021 20.4386 68.5304 20.4386C68.4577 20.4386 68.3992 20.3782 68.4051 20.3057C68.4363 19.9214 68.5416 19.5788 68.721 19.278C68.9288 18.943 69.2086 18.6798 69.5603 18.4883C69.92 18.2969 70.3316 18.2012 70.7952 18.2012Z" fill="currentColor"/>
<path d="M81.9162 18.2012C82.5077 18.2012 83.0033 18.3328 83.4029 18.596C83.8106 18.8592 84.1183 19.2142 84.3261 19.6609C84.542 20.1076 84.6499 20.6021 84.6499 21.1445V23.9674C84.6499 24.1132 84.5317 24.2315 84.3858 24.2315H83.7269C83.5811 24.2315 83.4629 24.1132 83.4629 23.9674V21.336C83.4629 20.977 83.4029 20.646 83.283 20.3429C83.1711 20.0398 82.9913 19.7965 82.7435 19.613C82.5037 19.4296 82.2 19.3378 81.8323 19.3378C81.4806 19.3378 81.1848 19.4296 80.945 19.613C80.7052 19.7885 80.5254 20.0278 80.4055 20.3309C80.2856 20.626 80.2256 20.9531 80.2256 21.312V23.9674C80.2256 24.1132 80.1074 24.2315 79.9616 24.2315H79.3027C79.1569 24.2315 79.0387 24.1132 79.0387 23.9674V21.312C79.0387 20.9531 78.9787 20.626 78.8588 20.3309C78.7469 20.0278 78.5671 19.7885 78.3193 19.613C78.0795 19.4296 77.7757 19.3378 77.408 19.3378C77.0404 19.3378 76.7366 19.4296 76.4968 19.613C76.265 19.7965 76.0932 20.0398 75.9813 20.3429C75.8694 20.646 75.8134 20.977 75.8134 21.336V23.9674C75.8134 24.1132 75.6952 24.2315 75.5494 24.2315H74.8904C74.7446 24.2315 74.6264 24.1132 74.6264 23.9674V21.1565C74.6264 20.6061 74.7263 20.1076 74.9262 19.6609C75.134 19.2142 75.4377 18.8592 75.8374 18.596C76.245 18.3328 76.7406 18.2012 77.3241 18.2012C77.8197 18.2012 78.2473 18.2969 78.607 18.4883C78.9747 18.6798 79.2585 18.943 79.4583 19.278C79.6452 19.5794 79.7513 19.9227 79.7766 20.308C79.7813 20.3796 79.7231 20.4386 79.6513 20.4386C79.5786 20.4386 79.5201 20.3782 79.526 20.3057C79.5572 19.9214 79.6626 19.5788 79.842 19.278C80.0498 18.943 80.3295 18.6798 80.6812 18.4883C81.0409 18.2969 81.4526 18.2012 81.9162 18.2012Z" fill="currentColor"/>
<path d="M85.9872 18.6327C85.9872 18.4869 86.1054 18.3687 86.2512 18.3687H86.9101C87.056 18.3687 87.1742 18.4869 87.1742 18.6327V23.9674C87.1742 24.1132 87.056 24.2315 86.9101 24.2315H86.2512C86.1054 24.2315 85.9872 24.1132 85.9872 23.9674V18.6327ZM86.5747 17.2081C86.4388 17.2081 86.3109 17.1762 86.191 17.1124C86.0711 17.0406 85.9752 16.9448 85.9033 16.8252C85.8313 16.7056 85.7953 16.5739 85.7953 16.4304C85.7953 16.2868 85.8313 16.1552 85.9033 16.0355C85.9752 15.9159 86.0711 15.8202 86.191 15.7484C86.3109 15.6766 86.4388 15.6407 86.5747 15.6407C86.7186 15.6407 86.8465 15.6766 86.9584 15.7484C87.0783 15.8202 87.1702 15.9159 87.2341 16.0355C87.3061 16.1552 87.342 16.2868 87.342 16.4304C87.342 16.5739 87.3061 16.7056 87.2341 16.8252C87.1702 16.9448 87.0783 17.0406 86.9584 17.1124C86.8465 17.1762 86.7186 17.2081 86.5747 17.2081Z" fill="currentColor"/>
<path d="M91.4218 19.3618C91.0382 19.3618 90.7184 19.4575 90.4626 19.6489C90.2069 19.8404 90.015 20.0876 89.8871 20.3907C89.7593 20.6938 89.6953 21.0289 89.6953 21.3958V23.9674C89.6953 24.1132 89.5771 24.2315 89.4313 24.2315H88.7723C88.6265 24.2315 88.5083 24.1132 88.5083 23.9674V21.2761C88.5083 20.7018 88.6202 20.1873 88.844 19.7327C89.0678 19.27 89.3956 18.9031 89.8272 18.6319C90.2588 18.3607 90.7904 18.2251 91.4218 18.2251C92.0693 18.2251 92.6088 18.3607 93.0404 18.6319C93.4801 18.9031 93.8118 19.27 94.0356 19.7327C94.2674 20.1873 94.3833 20.6978 94.3833 21.2642V23.9674C94.3833 24.1132 94.2651 24.2315 94.1193 24.2315H93.4603C93.3145 24.2315 93.1963 24.1132 93.1963 23.9674V21.4077C93.1963 21.0408 93.1284 20.7058 92.9925 20.4027C92.8646 20.0916 92.6688 19.8404 92.405 19.6489C92.1492 19.4575 91.8215 19.3618 91.4218 19.3618Z" fill="currentColor"/>
<path d="M98.1341 27.0671C97.5027 27.0671 96.9352 26.9315 96.4316 26.6603C96.0037 26.4299 95.6595 26.1102 95.399 25.7013C95.3214 25.5795 95.3707 25.4206 95.4978 25.3518L96.0288 25.0645C96.1581 24.9945 96.3181 25.0452 96.4041 25.1644C96.5585 25.3781 96.7554 25.5537 96.9951 25.6912C97.3148 25.8826 97.6865 25.9783 98.1101 25.9783C98.5258 25.9783 98.8855 25.8826 99.1892 25.6912C99.501 25.5077 99.7448 25.2445 99.9206 24.9015C100.096 24.5665 100.184 24.1716 100.184 23.717V22.5504C100.184 22.5085 100.202 22.4684 100.233 22.44C100.329 22.3518 100.477 22.4203 100.454 22.5486C100.411 22.78 100.326 23.0059 100.196 23.2264C100.013 23.5455 99.7407 23.8087 99.3811 24.0161C99.0294 24.2155 98.6017 24.3152 98.0982 24.3152C97.5466 24.3152 97.0431 24.1836 96.5874 23.9204C96.1398 23.6492 95.7801 23.2862 95.5084 22.8316C95.2446 22.3689 95.1127 21.8505 95.1127 21.2761C95.1127 20.7178 95.2486 20.2073 95.5204 19.7446C95.8001 19.282 96.1758 18.9151 96.6474 18.6439C97.119 18.3647 97.6505 18.2251 98.242 18.2251C98.8335 18.2251 99.3651 18.3607 99.8367 18.6319C100.308 18.8951 100.68 19.2581 100.952 19.7207C101.231 20.1833 101.371 20.7058 101.371 21.2881V23.705C101.371 24.383 101.231 24.9733 100.952 25.4758C100.672 25.9863 100.288 26.3772 99.8007 26.6484C99.3131 26.9275 98.7576 27.0671 98.1341 27.0671ZM98.23 23.2025C98.5897 23.2025 98.9175 23.1187 99.2132 22.9512C99.509 22.7757 99.7408 22.5404 99.9086 22.2453C100.084 21.9422 100.172 21.6151 100.172 21.2642C100.172 20.9052 100.084 20.5822 99.9086 20.295C99.7408 19.9999 99.509 19.7686 99.2132 19.6011C98.9175 19.4335 98.5897 19.3498 98.23 19.3498C97.8703 19.3498 97.5426 19.4335 97.2469 19.6011C96.9591 19.7686 96.7273 19.9999 96.5515 20.295C96.3756 20.5822 96.2877 20.9052 96.2877 21.2642C96.2877 21.6151 96.3756 21.9422 96.5515 22.2453C96.7273 22.5404 96.9591 22.7757 97.2469 22.9512C97.5426 23.1187 97.8703 23.2025 98.23 23.2025Z" fill="currentColor"/>
<path d="M55.1693 35.9687C54.6018 35.9687 54.0702 35.865 53.5746 35.6576C53.0791 35.4423 52.6434 35.1471 52.2678 34.7722C51.9001 34.3894 51.6083 33.9467 51.3925 33.4441C51.1847 32.9336 51.0808 32.3872 51.0808 31.805C51.0808 31.2306 51.1847 30.6922 51.3925 30.1897C51.6083 29.6872 51.9001 29.2485 52.2678 28.8736C52.6434 28.4907 53.0791 28.1956 53.5746 27.9882C54.0702 27.7728 54.6018 27.6651 55.1693 27.6651C55.6249 27.6651 56.0605 27.7409 56.4762 27.8924C56.8998 28.036 57.2795 28.2514 57.6152 28.5385C57.8865 28.7641 58.1134 29.0262 58.2959 29.3247C58.3693 29.4446 58.3229 29.5987 58.2012 29.669L57.6499 29.9871C57.5245 30.0596 57.3652 30.0164 57.2805 29.8988C57.0625 29.5962 56.7944 29.3542 56.4762 29.1727C56.0925 28.9414 55.6409 28.8257 55.1213 28.8257C54.7297 28.8257 54.366 28.9015 54.0303 29.053C53.6945 29.2046 53.3988 29.416 53.143 29.6872C52.8952 29.9584 52.6994 30.2774 52.5555 30.6444C52.4116 31.0033 52.3397 31.3902 52.3397 31.805C52.3397 32.2357 52.4076 32.6345 52.5435 33.0014C52.6874 33.3684 52.8832 33.6874 53.131 33.9586C53.3868 34.2219 53.6826 34.4293 54.0183 34.5808C54.362 34.7324 54.7297 34.8081 55.1213 34.8081C55.6409 34.8081 56.0965 34.6965 56.4882 34.4731C56.8044 34.2863 57.0686 34.0449 57.2806 33.7489C57.3653 33.6306 57.5253 33.5867 57.6513 33.6595L58.2012 33.9768C58.3229 34.0471 58.3693 34.2012 58.2959 34.3211C58.1134 34.6196 57.8865 34.8817 57.6152 35.1073C57.2795 35.3864 56.8998 35.6018 56.4762 35.7534C56.0605 35.8969 55.6249 35.9687 55.1693 35.9687Z" fill="currentColor"/>
<path d="M59.1835 27.5343C59.1835 27.3885 59.3017 27.2703 59.4475 27.2703H60.1065C60.2523 27.2703 60.3705 27.3885 60.3705 27.5343V35.5611C60.3705 35.7069 60.2523 35.8252 60.1065 35.8252H59.4475C59.3017 35.8252 59.1835 35.7069 59.1835 35.5611V27.5343Z" fill="currentColor"/>
<path d="M61.9444 30.2264C61.9444 30.0806 62.0626 29.9624 62.2085 29.9624H62.8674C63.0132 29.9624 63.1314 30.0806 63.1314 30.2264V35.5611C63.1314 35.7069 63.0132 35.8252 62.8674 35.8252H62.2085C62.0626 35.8252 61.9444 35.7069 61.9444 35.5611V30.2264ZM62.5319 28.8018C62.3961 28.8018 62.2682 28.7699 62.1483 28.7061C62.0284 28.6343 61.9324 28.5385 61.8605 28.4189C61.7886 28.2992 61.7526 28.1676 61.7526 28.0241C61.7526 27.8805 61.7886 27.7489 61.8605 27.6292C61.9324 27.5096 62.0284 27.4138 62.1483 27.3421C62.2682 27.2703 62.3961 27.2344 62.5319 27.2344C62.6758 27.2344 62.8037 27.2703 62.9156 27.3421C63.0355 27.4138 63.1274 27.5096 63.1914 27.6292C63.2633 27.7489 63.2993 27.8805 63.2993 28.0241C63.2993 28.1676 63.2633 28.2992 63.1914 28.4189C63.1274 28.5385 63.0355 28.6343 62.9156 28.7061C62.8037 28.7699 62.6758 28.8018 62.5319 28.8018Z" fill="currentColor"/>
<path d="M67.3791 30.9555C66.9954 30.9555 66.6757 31.0512 66.4199 31.2426C66.1641 31.434 65.9723 31.6813 65.8444 31.9844C65.7165 32.2875 65.6526 32.6226 65.6526 32.9895V35.5611C65.6526 35.7069 65.5343 35.8252 65.3885 35.8252H64.7296C64.5838 35.8252 64.4656 35.7069 64.4656 35.5611V32.8698C64.4656 32.2955 64.5775 31.781 64.8013 31.3264C65.0251 30.8637 65.3528 30.4968 65.7844 30.2256C66.2161 29.9544 66.7476 29.8188 67.3791 29.8188C68.0265 29.8188 68.5661 29.9544 68.9977 30.2256C69.4373 30.4968 69.769 30.8637 69.9928 31.3264C70.2246 31.781 70.3405 32.2915 70.3405 32.8579V35.5611C70.3405 35.7069 70.2223 35.8252 70.0765 35.8252H69.4176C69.2718 35.8252 69.1536 35.7069 69.1536 35.5611V33.0014C69.1536 32.6345 69.0856 32.2995 68.9497 31.9964C68.8218 31.6853 68.626 31.434 68.3622 31.2426C68.1065 31.0512 67.7787 30.9555 67.3791 30.9555Z" fill="currentColor"/>
<path d="M71.6814 30.2264C71.6814 30.0806 71.7996 29.9624 71.9455 29.9624H72.6044C72.7502 29.9624 72.8684 30.0806 72.8684 30.2264V35.5611C72.8684 35.7069 72.7502 35.8252 72.6044 35.8252H71.9455C71.7996 35.8252 71.6814 35.7069 71.6814 35.5611V30.2264ZM72.2689 28.8018C72.1331 28.8018 72.0052 28.7699 71.8853 28.7061C71.7654 28.6343 71.6694 28.5385 71.5975 28.4189C71.5256 28.2992 71.4896 28.1676 71.4896 28.0241C71.4896 27.8805 71.5256 27.7489 71.5975 27.6292C71.6694 27.5096 71.7654 27.4138 71.8853 27.3421C72.0052 27.2703 72.1331 27.2344 72.2689 27.2344C72.4128 27.2344 72.5407 27.2703 72.6526 27.3421C72.7725 27.4138 72.8644 27.5096 72.9284 27.6292C73.0003 27.7489 73.0363 27.8805 73.0363 28.0241C73.0363 28.1676 73.0003 28.2992 72.9284 28.4189C72.8644 28.5385 72.7725 28.6343 72.6526 28.7061C72.5407 28.7699 72.4128 28.8018 72.2689 28.8018Z" fill="currentColor"/>
<path d="M76.9003 35.9568C76.4846 35.9647 76.089 35.889 75.7133 35.7294C75.3376 35.5699 75.0099 35.3505 74.7301 35.0714C74.4504 34.7842 74.2305 34.4532 74.0707 34.0783C73.9108 33.7034 73.8309 33.3046 73.8309 32.8818C73.8309 32.459 73.9108 32.0642 74.0707 31.6973C74.2305 31.3224 74.4504 30.9953 74.7301 30.7162C75.0099 30.429 75.3376 30.2096 75.7133 30.0581C76.089 29.8986 76.4846 29.8188 76.9003 29.8188C77.4438 29.8188 77.9474 29.9424 78.411 30.1897C78.8079 30.4014 79.1345 30.7183 79.3908 31.1405C79.4643 31.2617 79.4163 31.417 79.2927 31.4862L78.7652 31.7815C78.6364 31.8535 78.4752 31.8046 78.3895 31.6845C78.2364 31.4699 78.0518 31.3027 77.8355 31.1828C77.5557 31.0233 77.244 30.9435 76.9003 30.9435C76.5566 30.9435 76.2408 31.0312 75.9531 31.2067C75.6733 31.3822 75.4455 31.6175 75.2697 31.9126C75.1018 32.2078 75.0179 32.5308 75.0179 32.8818C75.0179 33.2407 75.1018 33.5678 75.2697 33.8629C75.4455 34.1581 75.6733 34.3973 75.9531 34.5808C76.2408 34.7563 76.5566 34.844 76.9003 34.844C77.244 34.844 77.5557 34.7643 77.8355 34.6047C78.0522 34.4786 78.2371 34.3095 78.3904 34.0974C78.4756 33.9794 78.6342 33.9315 78.7618 34.0014L79.2881 34.2895C79.4137 34.3584 79.4626 34.5157 79.3874 34.6376C79.1316 35.0522 78.8061 35.3683 78.411 35.5859C77.9474 35.8331 77.4438 35.9568 76.9003 35.9568Z" fill="currentColor"/>
</svg>